<svg viewBox="0 0 18 19" width="14" height="14" ><path d="M15.4434 10.605C15.4794 10.3186 15.5064 10.0323 15.5064 9.72797C15.5064 9.42368 15.4794 9.13729 15.4434 8.8509L17.3424 7.37421C17.5134 7.23996 17.5584 6.99832 17.4504 6.80143L15.6504 3.70485C15.5424 3.50796 15.2994 3.43637 15.1014 3.50796L12.8604 4.40293C12.3924 4.04494 11.8884 3.7496 11.3394 3.52586L10.9974 1.15421C10.9704 0.939414 10.7814 0.77832 10.5564 0.77832H6.9564C6.7314 0.77832 6.5424 0.939414 6.5154 1.15421L6.1734 3.52586C5.6244 3.7496 5.1204 4.05389 4.6524 4.40293L2.4114 3.50796C2.2044 3.42742 1.9704 3.50796 1.8624 3.70485L0.0623984 6.80143C-0.0546016 6.99832 -0.000601472 7.23996 0.170398 7.37421L2.0694 8.8509C2.0334 9.13729 2.0064 9.43263 2.0064 9.72797C2.0064 10.0233 2.0334 10.3186 2.0694 10.605L0.170398 12.0817C-0.000601472 12.216 -0.0456016 12.4576 0.0623984 12.6545L1.8624 15.7511C1.9704 15.948 2.2134 16.0196 2.4114 15.948L4.6524 15.053C5.1204 15.411 5.6244 15.7063 6.1734 15.9301L6.5154 18.3017C6.5424 18.5165 6.7314 18.6776 6.9564 18.6776H10.5564C10.7814 18.6776 10.9704 18.5165 10.9974 18.3017L11.3394 15.9301C11.8884 15.7063 12.3924 15.402 12.8604 15.053L15.1014 15.948C15.3084 16.0285 15.5424 15.948 15.6504 15.7511L17.4504 12.6545C17.5584 12.4576 17.5134 12.216 17.3424 12.0817L15.4434 10.605V10.605ZM8.7564 12.8603C7.0194 12.8603 5.6064 11.4552 5.6064 9.72797C5.6064 8.00068 7.0194 6.59559 8.7564 6.59559C10.4934 6.59559 11.9064 8.00068 11.9064 9.72797C11.9064 11.4552 10.4934 12.8603 8.7564 12.8603Z"></path></svg>