<svg viewBox="0 0 14 14"><path d="M11.84,4.06v2.8c0,.31-.25,.57-.57,.57s-.57-.25-.57-.57v-2.8c0-1.12-.91-2.03-2.03-2.03H4.49c-.31,0-.57-.25-.57-.57s.25-.57,.57-.57h4.18c1.74,0,3.16,1.42,3.16,3.16Z"/><path d="M10.14,13.11H5.28c-1.74,0-3.16-1.42-3.16-3.16V2.03c0-.31,.25-.57,.57-.57s.57,.25,.57,.57v7.92c0,1.12,.91,2.03,2.03,2.03h4.86c.31,0,.57,.25,.57,.57s-.25,.57-.57,.57Z"/><rect x="5.83" y="11.08" width="8.17" height="2.92" rx=".58" ry=".58"/><rect x="8.62" y="5.54" width="5.38" height="2.92" rx=".58" ry=".58"/><rect width="5.38" height="2.92" rx=".58" ry=".58"/></svg>