<svg width="16" height="16" viewBox="0 0 16 16" ><path fill-rule="evenodd" clip-rule="evenodd" d="M9.5 10.5a.5.5 0 0 1 .5.5v3a.5.5 0 0 1-.5.5h-1A.5.5 0 0 1 8 14v-3a.5.5 0 0 1 .5-.5h1Zm-2.5 1V13H1.75a.75.75 0 0 1 0-1.5H7Zm7.25 0a.75.75 0 0 1 0 1.5H11v-1.5h3.25ZM5.5 6a.5.5 0 0 1 .5.5v3a.5.5 0 0 1-.5.5h-1a.5.5 0 0 1-.5-.5v-3a.5.5 0 0 1 .5-.5h1ZM3 7.25v1.5H1.75a.75.75 0 0 1 0-1.5H3Zm11.25 0a.75.75 0 0 1 0 1.5H7v-1.5h7.25Zm-2.75-5.5a.5.5 0 0 1 .5.5v3a.5.5 0 0 1-.5.5h-1a.5.5 0 0 1-.5-.5v-3a.5.5 0 0 1 .5-.5h1ZM9 3v1.5H1.75a.75.75 0 0 1 0-1.5H9Zm5.25 0a.75.75 0 0 1 0 1.5H13V3h1.25Z"></path></svg>