<svg width="16" height="16" viewBox="0 0 16 16"><path d="M1 1.8C1 1.51997 1 1.37996 1.0545 1.273C1.10243 1.17892 1.17892 1.10243 1.273 1.0545C1.37996 1 1.51997 1 1.8 1H14.2C14.48 1 14.62 1 14.727 1.0545C14.8211 1.10243 14.8976 1.17892 14.9455 1.273C15 1.37996 15 1.51997 15 1.8V2.2C15 2.48003 15 2.62004 14.9455 2.727C14.8976 2.82108 14.8211 2.89757 14.727 2.9455C14.62 3 14.48 3 14.2 3H1.8C1.51997 3 1.37996 3 1.273 2.9455C1.17892 2.89757 1.10243 2.82108 1.0545 2.727C1 2.62004 1 2.48003 1 2.2V1.8Z"></path><path d="M1 13.8C1 13.52 1 13.38 1.0545 13.273C1.10243 13.1789 1.17892 13.1024 1.273 13.0545C1.37996 13 1.51997 13 1.8 13H14.2C14.48 13 14.62 13 14.727 13.0545C14.8211 13.1024 14.8976 13.1789 14.9455 13.273C15 13.38 15 13.52 15 13.8V14.2C15 14.48 15 14.62 14.9455 14.727C14.8976 14.8211 14.8211 14.8976 14.727 14.9455C14.62 15 14.48 15 14.2 15H1.8C1.51997 15 1.37996 15 1.273 14.9455C1.17892 14.8976 1.10243 14.8211 1.0545 14.727C1 14.62 1 14.48 1 14.2V13.8Z"></path><path d="M1 9.8C1 9.51997 1 9.37996 1.0545 9.273C1.10243 9.17892 1.17892 9.10243 1.273 9.0545C1.37996 9 1.51997 9 1.8 9H14.2C14.48 9 14.62 9 14.727 9.0545C14.8211 9.10243 14.8976 9.17892 14.9455 9.273C15 9.37996 15 9.51997 15 9.8V10.2C15 10.48 15 10.62 14.9455 10.727C14.8976 10.8211 14.8211 10.8976 14.727 10.9455C14.62 11 14.48 11 14.2 11H1.8C1.51997 11 1.37996 11 1.273 10.9455C1.17892 10.8976 1.10243 10.8211 1.0545 10.727C1 10.62 1 10.48 1 10.2V9.8Z"></path><path d="M1 5.8C1 5.51997 1 5.37996 1.0545 5.273C1.10243 5.17892 1.17892 5.10243 1.273 5.0545C1.37996 5 1.51997 5 1.8 5H14.2C14.48 5 14.62 5 14.727 5.0545C14.8211 5.10243 14.8976 5.17892 14.9455 5.273C15 5.37996 15 5.51997 15 5.8V6.2C15 6.48003 15 6.62004 14.9455 6.727C14.8976 6.82108 14.8211 6.89757 14.727 6.9455C14.62 7 14.48 7 14.2 7H1.8C1.51997 7 1.37996 7 1.273 6.9455C1.17892 6.89757 1.10243 6.82108 1.0545 6.727C1 6.62004 1 6.48003 1 6.2V5.8Z"></path></svg>